<svg xmlns="http://www.w3.org/2000/svg" width="22" height="22" viewBox="0 0 22 22">
    <g fill="none" fill-rule="evenodd">
        <path fill="#4285F4" d="M21.56 11.25c0-.78-.07-1.53-.2-2.25H11v4.255h5.92a5.06 5.06 0 0 1-2.195 3.32v2.76h3.555c2.08-1.915 3.28-4.735 3.28-8.085z"/>
        <path fill="#34A853" d="M11 22c2.97 0 5.46-.985 7.28-2.665l-3.555-2.76c-.985.66-2.245 1.05-3.725 1.05-2.865 0-5.29-1.935-6.155-4.535H1.17v2.85A10.996 10.996 0 0 0 11 22z"/>
        <path fill="#FBBC05" d="M4.845 13.09A6.612 6.612 0 0 1 4.5 11c0-.725.125-1.43.345-2.09V6.06H1.17A10.996 10.996 0 0 0 0 11c0 1.775.425 3.455 1.17 4.94l3.675-2.85z"/>
        <path fill="#EA4335" d="M11 4.375c1.615 0 3.065.555 4.205 1.645l3.155-3.155C16.455 1.09 13.965 0 11 0 6.7 0 2.98 2.465 1.17 6.06l3.675 2.85C5.71 6.31 8.135 4.375 11 4.375z"/>
    </g>
</svg>
