<svg xmlns="http://www.w3.org/2000/svg" width="24" height="24" fill="none" viewBox="0 0 24 24">
    <path fill="var(--ion-color-primary-contrast)" fill-rule="evenodd" d="M7.284 8H4c-1.105 0-2 .895-2 2v10c0 1.105.895 2 2 2h10c1.105 0 2-.895 2-2v-.53l-9.068-2.43c-1.067-.285-1.7-1.382-1.414-2.449L7.284 8z" clip-rule="evenodd"/>
    <path fill="#333" d="M7.284 8l.966.259c.08-.3.016-.621-.173-.868C7.887 7.145 7.595 7 7.284 7v1zM16 19.47h1c0-.452-.304-.848-.741-.965L16 19.47zm-9.068-2.43l-.259.966.259-.965zm-1.414-2.449l.966.259-.966-.259zM4 9h3.284V7H4v2zm-1 1c0-.552.448-1 1-1V7c-1.657 0-3 1.343-3 3h2zm0 10V10H1v10h2zm1 1c-.552 0-1-.448-1-1H1c0 1.657 1.343 3 3 3v-2zm10 0H4v2h10v-2zm1-1c0 .552-.448 1-1 1v2c1.657 0 3-1.343 3-3h-2zm0-.53V20h2v-.53h-2zm1.259-.965l-9.068-2.43-.518 1.931 9.068 2.43.518-1.931zm-9.068-2.43c-.534-.143-.85-.692-.707-1.225l-1.932-.518c-.43 1.6.52 3.246 2.121 3.674l.518-1.931zm-.707-1.225L8.25 8.259 6.318 7.74l-1.766 6.591 1.932.518z"/>
    <rect width="14" height="14" x="8.624" y="3" fill="var(--ion-color-primary-contrast)" stroke="#333" stroke-linecap="round" stroke-linejoin="round" stroke-width="2" rx="2" transform="rotate(15 8.624 3)"/>
</svg>
