<svg width="24" height="24" viewBox="0 0 24 24" fill="none" xmlns="http://www.w3.org/2000/svg">
<path d="M11.0919 0.690726C11.6285 0.282569 12.3715 0.282569 12.9081 0.690726L14.1824 1.65999C14.4955 1.89817 14.8897 2.00379 15.28 1.95409L16.8682 1.75183C17.537 1.66666 18.1804 2.03815 18.4411 2.65993L19.06 4.13649C19.2121 4.49933 19.5007 4.78789 19.8635 4.93998L21.3401 5.55893C21.9618 5.81956 22.3333 6.46301 22.2482 7.1318L22.0459 8.72001C21.9962 9.11028 22.1018 9.50446 22.34 9.8176L23.3093 11.0919C23.7174 11.6285 23.7174 12.3715 23.3093 12.9081L22.34 14.1824C22.1018 14.4955 21.9962 14.8897 22.0459 15.28L22.2482 16.8682C22.3333 17.537 21.9618 18.1804 21.3401 18.4411L19.8635 19.06C19.5007 19.2121 19.2121 19.5007 19.06 19.8635L18.4411 21.3401C18.1804 21.9618 17.537 22.3333 16.8682 22.2482L15.28 22.0459C14.8897 21.9962 14.4955 22.1018 14.1824 22.34L12.9081 23.3093C12.3715 23.7174 11.6285 23.7174 11.0919 23.3093L9.8176 22.34C9.50446 22.1018 9.11028 21.9962 8.72001 22.0459L7.1318 22.2482C6.46301 22.3333 5.81956 21.9618 5.55893 21.3401L4.93998 19.8635C4.78789 19.5007 4.49933 19.2121 4.13649 19.06L2.65993 18.4411C2.03815 18.1804 1.66666 17.537 1.75183 16.8682L1.95409 15.28C2.00379 14.8897 1.89817 14.4955 1.65999 14.1824L0.690726 12.9081C0.282569 12.3715 0.282569 11.6285 0.690726 11.0919L1.65999 9.8176C1.89817 9.50446 2.00379 9.11028 1.95409 8.72001L1.75183 7.1318C1.66666 6.46301 2.03815 5.81956 2.65993 5.55893L4.13649 4.93998C4.49933 4.78789 4.78789 4.49933 4.93998 4.13649L5.55893 2.65993C5.81956 2.03815 6.46301 1.66666 7.1318 1.75183L8.72001 1.95409C9.11028 2.00379 9.50446 1.89817 9.8176 1.65999L11.0919 0.690726Z" fill="#4C70F2"/>
<path d="M7.20007 11.9995L10.4001 15.1995L16.8001 7.99951" stroke="white" stroke-width="2.25" stroke-linecap="round" stroke-linejoin="round"/>
</svg>
