<svg width="24" height="24" viewBox="0 0 24 24" fill="none" xmlns="http://www.w3.org/2000/svg">
    <path d="M12 8.003a2 2 0 1 0 0 4 2 2 0 0 0 0-4z" fill="#23233D"/>
    <path fill-rule="evenodd" clip-rule="evenodd" d="M8.5 17.47a29.77 29.77 0 0 0 2.235 2.387c.71.68 1.82.68 2.53 0A29.763 29.763 0 0 0 15.5 17.47c1.6-1.91 3.5-4.756 3.5-7.468a6.953 6.953 0 0 0-2.048-4.95A7 7 0 0 0 5 10.002c0 2.712 1.9 5.557 3.5 7.468zM7 10.002a5.005 5.005 0 0 1 5-4.999 5.005 5.005 0 0 1 5 5c0 1.164-.527 3.183-3.034 6.187-.411.49-.838.964-1.282 1.424a.948.948 0 0 1-1.368 0c-.443-.461-.87-.937-1.281-1.427C7.527 13.187 7 11.168 7 10.002z" fill="#23233D"/>
</svg>
