<svg width="20" height="20" viewBox="0 0 20 20" fill="none" xmlns="http://www.w3.org/2000/svg">
<mask id="path-1-inside-1_1001_4841" fill="white">
<path d="M2.5 10.0001C2.5 5.39771 6.23096 1.66675 10.8333 1.66675C15.4357 1.66675 19.1667 5.39771 19.1667 10.0001C19.1667 14.6025 15.4357 18.3334 10.8333 18.3334H3.5C2.94771 18.3334 2.5 17.8857 2.5 17.3334V10.0001Z"/>
</mask>
<path d="M2.5 10.0001C2.5 5.39771 6.23096 1.66675 10.8333 1.66675C15.4357 1.66675 19.1667 5.39771 19.1667 10.0001C19.1667 14.6025 15.4357 18.3334 10.8333 18.3334H3.5C2.94771 18.3334 2.5 17.8857 2.5 17.3334V10.0001Z" stroke="#7D7D8D" stroke-width="3" mask="url(#path-1-inside-1_1001_4841)"/>
<rect x="6.66663" y="7.5" width="6.66667" height="1.66667" rx="0.833333" fill="#7D7D8D"/>
<rect x="6.66663" y="10.8333" width="5" height="1.66667" rx="0.833333" fill="#7D7D8D"/>
</svg>
