<svg width="24" height="24" viewBox="0 0 24 24" fill="none" xmlns="http://www.w3.org/2000/svg">
    <path d="M19.52 15.66c2.968-.304.187-5.968-.554-7.511h-8.514c-.536.265-.99.632-1.415 1.089-1.33 1.44-1.128 2.312-2.98 2.782-1.472.375-3.964-.48-3.942 3.646h1.207c.583-2.914 4.553-2.914 5.136 0h5.927c.583-2.91 4.547-2.913 5.136-.006zM3.324 16.815H1.575a.565.565 0 0 1-.558-.542c-.143-2.65.583-4.816 3.074-5.204.336-.05 2.116.046 2.684-.658.481-.75.942-1.411 1.454-1.962C8.626 8.017 9.806 7 10.333 7h8.98c.204 0 .402.116.5.32 1.113 2.284 4.465 9.313-.293 9.498-.588 2.91-4.553 2.907-5.135-.003H8.458c-.583 2.913-4.553 2.914-5.135 0zm3.625-1.734c-1.408-1.502-3.53.808-2.116 2.32 1.412 1.502 3.532-.808 2.116-2.32zm11.063 0c-1.412-1.502-3.534.808-2.116 2.32 1.409 1.502 3.53-.808 2.116-2.32z" fill="#23233D" stroke="#23233D" stroke-width=".6"/>
</svg>
