<svg width="24" height="24" viewBox="0 0 24 24" fill="none" xmlns="http://www.w3.org/2000/svg">
    <path d="M12.375 15.818v-.614c0-.477.102-.918.307-1.323.208-.406.51-.731.903-.978.394-.246.875-.369 1.443-.369.58 0 1.067.123 1.46.37.398.242.698.566.898.971.205.402.307.845.307 1.33v.613c0 .478-.102.919-.307 1.324a2.41 2.41 0 0 1-.903.977c-.398.247-.883.37-1.455.37-.575 0-1.06-.123-1.454-.37a2.422 2.422 0 0 1-.898-.977 2.942 2.942 0 0 1-.301-1.324zm1.813-.614v.614c0 .243.058.476.176.699.12.224.342.335.664.335.33 0 .551-.108.665-.324.114-.22.17-.456.17-.71v-.614c0-.253-.054-.492-.164-.715-.106-.228-.33-.341-.67-.341-.319 0-.538.113-.66.34a1.48 1.48 0 0 0-.181.716zM6.34 9.16v-.614c0-.484.104-.928.312-1.33.213-.404.516-.728.91-.97.393-.247.87-.37 1.431-.37.58 0 1.067.123 1.46.37.398.242.7.566.904.97.204.402.307.846.307 1.33v.614c0 .485-.104.928-.313 1.33a2.344 2.344 0 0 1-.903.96c-.398.239-.883.358-1.455.358-.572 0-1.056-.121-1.454-.364a2.392 2.392 0 0 1-.898-.966c-.2-.401-.301-.84-.301-1.318zm1.83-.614v.614c0 .254.058.49.176.71.12.216.337.324.647.324.334 0 .555-.108.665-.324.114-.22.17-.456.17-.71v-.614c0-.253-.052-.492-.159-.715-.106-.228-.331-.341-.676-.341-.318 0-.536.115-.653.346-.114.231-.17.468-.17.71zM7.198 18l8-11.636h1.551L8.75 18H7.199z" fill="#EB5757"/>
</svg>
