<svg width="24" height="24" viewBox="0 0 24 24" fill="none" xmlns="http://www.w3.org/2000/svg">
    <rect x="4" y="4" width="16" height="16" rx="8" stroke="#F2994A" stroke-width="2"/>
    <path d="M11.392 6.603v.694C10.029 7.55 9 8.63 9 9.921c0 .887.496 2.07 2.852 2.667 1.283.326 1.937.827 1.937 1.49 0 .815-.799 1.479-1.786 1.479s-1.786-.664-1.786-1.479a.606.606 0 0 0-1.21 0c0 1.292 1.028 2.377 2.39 2.625v.694a.606.606 0 0 0 1.211 0v-.694C13.971 16.449 15 15.37 15 14.078c0-.886-.496-2.069-2.852-2.66-1.283-.326-1.937-.827-1.937-1.496 0-.815.799-1.479 1.786-1.479s1.786.664 1.786 1.479a.606.606 0 0 0 1.21 0c0-1.292-1.028-2.377-2.39-2.625v-.694a.606.606 0 0 0-1.211 0z" fill="#F2994A" stroke="#F2994A" stroke-width=".5"/>
</svg>
