<svg width="24" height="24" viewBox="0 0 24 24" fill="none" xmlns="http://www.w3.org/2000/svg">
    <path d="m9.78 5.118.929-.372-.929.372zm.938 2.342.928-.371-.929.371zm-.285 1.799.768.64-.768-.64zm-.505.605.768.64-.768-.64zm.109 2.395-.707.707.707-.707zm1.704 1.704.707-.707-.707.707zm2.395.109-.64-.768.64.768zm.605-.505.64.769-.64-.769zm1.799-.284-.372.928.372-.928zm2.343.937.37-.929-.37.929zM5.684 5H8.13V3H5.684v2zm3.168.489.937 2.343 1.857-.743-.937-2.343-1.857.743zm.812 3.13-.504.605 1.536 1.28.505-.605-1.537-1.28zm-.334 4.347 1.704 1.704 1.414-1.414-1.704-1.704-1.414 1.414zm5.446 1.874.606-.504-1.28-1.537-.606.505 1.28 1.536zm1.392-.629 2.343.937.743-1.857-2.343-.937-.743 1.857zM19 15.871v2.445h2V15.87h-2zM18.316 19C10.962 19 5 13.038 5 5.684H3C3 14.143 9.857 21 18.316 21v-2zm.684-.684a.684.684 0 0 1-.684.684v2A2.684 2.684 0 0 0 21 18.316h-2zm-.489-3.168a.778.778 0 0 1 .489.722h2a2.778 2.778 0 0 0-1.746-2.579l-.743 1.857zm-3.13-.812a.778.778 0 0 1 .787-.125l.743-1.857a2.778 2.778 0 0 0-2.81.445l1.28 1.537zm-4.347.334a2.778 2.778 0 0 0 3.742.17l-1.28-1.536a.778.778 0 0 1-1.048-.048l-1.414 1.414zM9.16 9.224a2.778 2.778 0 0 0 .17 3.742l1.414-1.414a.778.778 0 0 1-.048-1.048L9.16 9.224zm.629-1.392a.778.778 0 0 1-.125.787l1.537 1.28a2.778 2.778 0 0 0 .445-2.81l-1.857.743zM8.129 5c.319 0 .605.194.723.489l1.857-.743A2.778 2.778 0 0 0 8.129 3v2zM5.685 3A2.684 2.684 0 0 0 3 5.684h2C5 5.306 5.306 5 5.684 5V3z" fill="#23233D"/>
</svg>
